<?xml version="1.0" encoding="utf-8" standalone="no"?>
<!DOCTYPE svg PUBLIC "-//W3C//DTD SVG 1.1//EN"
  "http://www.w3.org/Graphics/SVG/1.1/DTD/svg11.dtd">
<!-- Created with matplotlib (http://matplotlib.org/) -->
<svg height="144pt" version="1.1" viewBox="0 0 216 144" width="216pt" xmlns="http://www.w3.org/2000/svg" xmlns:xlink="http://www.w3.org/1999/xlink">
 <defs>
  <style type="text/css">
*{stroke-linecap:butt;stroke-linejoin:round;stroke-miterlimit:100000;}
  </style>
 </defs>
 <g id="figure_1">
  <g id="patch_1">
   <path d="M 0 144 
L 216 144 
L 216 0 
L 0 0 
z
" style="fill:#ffffff;"/>
  </g>
  <g id="axes_1">
   <g id="patch_2">
    <path d="M 27 126 
L 194.4 126 
L 194.4 14.4 
L 27 14.4 
z
" style="fill:#ffffff;"/>
   </g>
   <g id="PathCollection_1">
    <defs>
     <path d="M 0 2.236068 
C 0.593012 2.236068 1.161816 2.000462 1.581139 1.581139 
C 2.000462 1.161816 2.236068 0.593012 2.236068 0 
C 2.236068 -0.593012 2.000462 -1.161816 1.581139 -1.581139 
C 1.161816 -2.000462 0.593012 -2.236068 0 -2.236068 
C -0.593012 -2.236068 -1.161816 -2.000462 -1.581139 -1.581139 
C -2.000462 -1.161816 -2.236068 -0.593012 -2.236068 0 
C -2.236068 0.593012 -2.000462 1.161816 -1.581139 1.581139 
C -1.161816 2.000462 -0.593012 2.236068 0 2.236068 
z
" id="mdb7243f3af" style="stroke:#56b4e9;"/>
    </defs>
    <g clip-path="url(#pffccc37a90)">
     <use style="fill:#56b4e9;stroke:#56b4e9;" x="94.4523529412" xlink:href="#mdb7243f3af" y="114.753352314"/>
     <use style="fill:#56b4e9;stroke:#56b4e9;" x="89.3647058824" xlink:href="#mdb7243f3af" y="112.548088421"/>
     <use style="fill:#56b4e9;stroke:#56b4e9;" x="89.6929411765" xlink:href="#mdb7243f3af" y="112.677913141"/>
     <use style="fill:#56b4e9;stroke:#56b4e9;" x="107.253529412" xlink:href="#mdb7243f3af" y="114.386987708"/>
     <use style="fill:#56b4e9;stroke:#56b4e9;" x="90.1852941176" xlink:href="#mdb7243f3af" y="110.194048888"/>
     <use style="fill:#56b4e9;stroke:#56b4e9;" x="96.4217647059" xlink:href="#mdb7243f3af" y="114.185319641"/>
     <use style="fill:#56b4e9;stroke:#56b4e9;" x="103.150588235" xlink:href="#mdb7243f3af" y="111.959500266"/>
     <use style="fill:#56b4e9;stroke:#56b4e9;" x="95.2729411765" xlink:href="#mdb7243f3af" y="117.887403056"/>
     <use style="fill:#56b4e9;stroke:#56b4e9;" x="113.654117647" xlink:href="#mdb7243f3af" y="92.8671739628"/>
     <use style="fill:#56b4e9;stroke:#56b4e9;" x="128.588823529" xlink:href="#mdb7243f3af" y="70.7737827615"/>
     <use style="fill:#56b4e9;stroke:#56b4e9;" x="158.294117647" xlink:href="#mdb7243f3af" y="99.4688285714"/>
     <use style="fill:#56b4e9;stroke:#56b4e9;" x="91.4982352941" xlink:href="#mdb7243f3af" y="109.653948"/>
     <use style="fill:#56b4e9;stroke:#56b4e9;" x="93.96" xlink:href="#mdb7243f3af" y="109.053010511"/>
     <use style="fill:#56b4e9;stroke:#56b4e9;" x="95.2729411765" xlink:href="#mdb7243f3af" y="113.099417505"/>
     <use style="fill:#56b4e9;stroke:#56b4e9;" x="100.688823529" xlink:href="#mdb7243f3af" y="110.281744924"/>
     <use style="fill:#56b4e9;stroke:#56b4e9;" x="103.314705882" xlink:href="#mdb7243f3af" y="111.042761553"/>
     <use style="fill:#56b4e9;stroke:#56b4e9;" x="121.039411765" xlink:href="#mdb7243f3af" y="56.3447041986"/>
     <use style="fill:#56b4e9;stroke:#56b4e9;" x="112.669411765" xlink:href="#mdb7243f3af" y="91.8085822036"/>
     <use style="fill:#56b4e9;stroke:#56b4e9;" x="121.203529412" xlink:href="#mdb7243f3af" y="57.8664830769"/>
     <use style="fill:#56b4e9;stroke:#56b4e9;" x="104.955882353" xlink:href="#mdb7243f3af" y="114.23916339"/>
     <use style="fill:#56b4e9;stroke:#56b4e9;" x="87.5594117647" xlink:href="#mdb7243f3af" y="114.474145304"/>
     <use style="fill:#56b4e9;stroke:#56b4e9;" x="129.573529412" xlink:href="#mdb7243f3af" y="71.8727888629"/>
     <use style="fill:#56b4e9;stroke:#56b4e9;" x="88.5441176471" xlink:href="#mdb7243f3af" y="115.151335257"/>
     <use style="fill:#56b4e9;stroke:#56b4e9;" x="66.3882352941" xlink:href="#mdb7243f3af" y="109.803753962"/>
     <use style="fill:#56b4e9;stroke:#56b4e9;" x="93.1394117647" xlink:href="#mdb7243f3af" y="113.253588403"/>
     <use style="fill:#56b4e9;stroke:#56b4e9;" x="106.597058824" xlink:href="#mdb7243f3af" y="110.721811141"/>
     <use style="fill:#56b4e9;stroke:#56b4e9;" x="138.928235294" xlink:href="#mdb7243f3af" y="77.5433443599"/>
     <use style="fill:#56b4e9;stroke:#56b4e9;" x="106.465764706" xlink:href="#mdb7243f3af" y="106.098197595"/>
     <use style="fill:#56b4e9;stroke:#56b4e9;" x="81.6511764706" xlink:href="#mdb7243f3af" y="114.73806433"/>
     <use style="fill:#56b4e9;stroke:#56b4e9;" x="145.575" xlink:href="#mdb7243f3af" y="87.2625890194"/>
     <use style="fill:#56b4e9;stroke:#56b4e9;" x="92.1547058824" xlink:href="#mdb7243f3af" y="115.44871443"/>
     <use style="fill:#56b4e9;stroke:#56b4e9;" x="70.8194117647" xlink:href="#mdb7243f3af" y="114.770969072"/>
     <use style="fill:#56b4e9;stroke:#56b4e9;" x="113.49" xlink:href="#mdb7243f3af" y="93.2565462292"/>
     <use style="fill:#56b4e9;stroke:#56b4e9;" x="102.822352941" xlink:href="#mdb7243f3af" y="108.85824"/>
     <use style="fill:#56b4e9;stroke:#56b4e9;" x="89.6929411765" xlink:href="#mdb7243f3af" y="112.68612"/>
     <use style="fill:#56b4e9;stroke:#56b4e9;" x="76.6455882353" xlink:href="#mdb7243f3af" y="115.59682838"/>
     <use style="fill:#56b4e9;stroke:#56b4e9;" x="156.242647059" xlink:href="#mdb7243f3af" y="95.3674095414"/>
     <use style="fill:#56b4e9;stroke:#56b4e9;" x="149.677941176" xlink:href="#mdb7243f3af" y="94.4839371305"/>
     <use style="fill:#56b4e9;stroke:#56b4e9;" x="83.4564705882" xlink:href="#mdb7243f3af" y="114.59448"/>
     <use style="fill:#56b4e9;stroke:#56b4e9;" x="126.222794118" xlink:href="#mdb7243f3af" y="71.1437921273"/>
     <use style="fill:#56b4e9;stroke:#56b4e9;" x="117.100588235" xlink:href="#mdb7243f3af" y="79.4501240028"/>
     <use style="fill:#56b4e9;stroke:#56b4e9;" x="136.794705882" xlink:href="#mdb7243f3af" y="84.8765647641"/>
     <use style="fill:#56b4e9;stroke:#56b4e9;" x="98.0629411765" xlink:href="#mdb7243f3af" y="113.904675576"/>
     <use style="fill:#56b4e9;stroke:#56b4e9;" x="51.9458823529" xlink:href="#mdb7243f3af" y="110.737509215"/>
     <use style="fill:#56b4e9;stroke:#56b4e9;" x="72.6247058824" xlink:href="#mdb7243f3af" y="108.570316574"/>
     <use style="fill:#56b4e9;stroke:#56b4e9;" x="53.7511764706" xlink:href="#mdb7243f3af" y="112.393710046"/>
     <use style="fill:#56b4e9;stroke:#56b4e9;" x="55.7205882353" xlink:href="#mdb7243f3af" y="109.540284776"/>
     <use style="fill:#56b4e9;stroke:#56b4e9;" x="65.8958823529" xlink:href="#mdb7243f3af" y="107.425117468"/>
     <use style="fill:#56b4e9;stroke:#56b4e9;" x="83.1282352941" xlink:href="#mdb7243f3af" y="110.615597346"/>
     <use style="fill:#56b4e9;stroke:#56b4e9;" x="82.6358823529" xlink:href="#mdb7243f3af" y="111.625260588"/>
     <use style="fill:#56b4e9;stroke:#56b4e9;" x="55.3923529412" xlink:href="#mdb7243f3af" y="113.013268962"/>
     <use style="fill:#56b4e9;stroke:#56b4e9;" x="85.59" xlink:href="#mdb7243f3af" y="109.04732524"/>
     <use style="fill:#56b4e9;stroke:#56b4e9;" x="82.8" xlink:href="#mdb7243f3af" y="119.44675736"/>
     <use style="fill:#56b4e9;stroke:#56b4e9;" x="35.0417647059" xlink:href="#mdb7243f3af" y="112.425138699"/>
     <use style="fill:#56b4e9;stroke:#56b4e9;" x="154.355294118" xlink:href="#mdb7243f3af" y="99.4955636364"/>
     <use style="fill:#56b4e9;stroke:#56b4e9;" x="110.621265816" xlink:href="#mdb7243f3af" y="82.9586509493"/>
     <use style="fill:#56b4e9;stroke:#56b4e9;" x="48.0143601675" xlink:href="#mdb7243f3af" y="100.558396706"/>
     <use style="fill:#56b4e9;stroke:#56b4e9;" x="61.1841243869" xlink:href="#mdb7243f3af" y="109.568064595"/>
     <use style="fill:#56b4e9;stroke:#56b4e9;" x="60.4726755248" xlink:href="#mdb7243f3af" y="98.9304314988"/>
     <use style="fill:#56b4e9;stroke:#56b4e9;" x="83.5997483142" xlink:href="#mdb7243f3af" y="103.060108327"/>
    </g>
   </g>
   <g id="PathCollection_2">
    <defs>
     <path d="M 0 2.236068 
C 0.593012 2.236068 1.161816 2.000462 1.581139 1.581139 
C 2.000462 1.161816 2.236068 0.593012 2.236068 0 
C 2.236068 -0.593012 2.000462 -1.161816 1.581139 -1.581139 
C 1.161816 -2.000462 0.593012 -2.236068 0 -2.236068 
C -0.593012 -2.236068 -1.161816 -2.000462 -1.581139 -1.581139 
C -2.000462 -1.161816 -2.236068 -0.593012 -2.236068 0 
C -2.236068 0.593012 -2.000462 1.161816 -1.581139 1.581139 
C -1.161816 2.000462 -0.593012 2.236068 0 2.236068 
z
" id="m49ec6a4092" style="stroke:#000000;"/>
    </defs>
    <g clip-path="url(#pffccc37a90)">
     <use style="stroke:#000000;" x="94.4523529412" xlink:href="#m49ec6a4092" y="114.753352314"/>
     <use style="stroke:#000000;" x="89.3647058824" xlink:href="#m49ec6a4092" y="112.548088421"/>
     <use style="stroke:#000000;" x="89.6929411765" xlink:href="#m49ec6a4092" y="112.677913141"/>
     <use style="stroke:#000000;" x="107.253529412" xlink:href="#m49ec6a4092" y="114.386987708"/>
     <use style="stroke:#000000;" x="90.1852941176" xlink:href="#m49ec6a4092" y="110.194048888"/>
     <use style="stroke:#000000;" x="96.4217647059" xlink:href="#m49ec6a4092" y="114.185319641"/>
     <use style="stroke:#000000;" x="103.150588235" xlink:href="#m49ec6a4092" y="111.959500266"/>
     <use style="stroke:#000000;" x="95.2729411765" xlink:href="#m49ec6a4092" y="117.887403056"/>
     <use style="stroke:#000000;" x="113.654117647" xlink:href="#m49ec6a4092" y="92.8671739628"/>
     <use style="stroke:#000000;" x="128.588823529" xlink:href="#m49ec6a4092" y="70.7737827615"/>
     <use style="stroke:#000000;" x="158.294117647" xlink:href="#m49ec6a4092" y="99.4688285714"/>
     <use style="stroke:#000000;" x="91.4982352941" xlink:href="#m49ec6a4092" y="109.653948"/>
     <use style="stroke:#000000;" x="93.96" xlink:href="#m49ec6a4092" y="109.053010511"/>
     <use style="stroke:#000000;" x="95.2729411765" xlink:href="#m49ec6a4092" y="113.099417505"/>
     <use style="stroke:#000000;" x="100.688823529" xlink:href="#m49ec6a4092" y="110.281744924"/>
     <use style="stroke:#000000;" x="103.314705882" xlink:href="#m49ec6a4092" y="111.042761553"/>
     <use style="stroke:#000000;" x="121.039411765" xlink:href="#m49ec6a4092" y="56.3447041986"/>
     <use style="stroke:#000000;" x="112.669411765" xlink:href="#m49ec6a4092" y="91.8085822036"/>
     <use style="stroke:#000000;" x="121.203529412" xlink:href="#m49ec6a4092" y="57.8664830769"/>
     <use style="stroke:#000000;" x="104.955882353" xlink:href="#m49ec6a4092" y="114.23916339"/>
     <use style="stroke:#000000;" x="87.5594117647" xlink:href="#m49ec6a4092" y="114.474145304"/>
     <use style="stroke:#000000;" x="129.573529412" xlink:href="#m49ec6a4092" y="71.8727888629"/>
     <use style="stroke:#000000;" x="88.5441176471" xlink:href="#m49ec6a4092" y="115.151335257"/>
     <use style="stroke:#000000;" x="66.3882352941" xlink:href="#m49ec6a4092" y="109.803753962"/>
     <use style="stroke:#000000;" x="93.1394117647" xlink:href="#m49ec6a4092" y="113.253588403"/>
     <use style="stroke:#000000;" x="106.597058824" xlink:href="#m49ec6a4092" y="110.721811141"/>
     <use style="stroke:#000000;" x="138.928235294" xlink:href="#m49ec6a4092" y="77.5433443599"/>
     <use style="stroke:#000000;" x="106.465764706" xlink:href="#m49ec6a4092" y="106.098197595"/>
     <use style="stroke:#000000;" x="81.6511764706" xlink:href="#m49ec6a4092" y="114.73806433"/>
     <use style="stroke:#000000;" x="145.575" xlink:href="#m49ec6a4092" y="87.2625890194"/>
     <use style="stroke:#000000;" x="92.1547058824" xlink:href="#m49ec6a4092" y="115.44871443"/>
     <use style="stroke:#000000;" x="70.8194117647" xlink:href="#m49ec6a4092" y="114.770969072"/>
     <use style="stroke:#000000;" x="113.49" xlink:href="#m49ec6a4092" y="93.2565462292"/>
     <use style="stroke:#000000;" x="102.822352941" xlink:href="#m49ec6a4092" y="108.85824"/>
     <use style="stroke:#000000;" x="89.6929411765" xlink:href="#m49ec6a4092" y="112.68612"/>
     <use style="stroke:#000000;" x="76.6455882353" xlink:href="#m49ec6a4092" y="115.59682838"/>
     <use style="stroke:#000000;" x="156.242647059" xlink:href="#m49ec6a4092" y="95.3674095414"/>
     <use style="stroke:#000000;" x="149.677941176" xlink:href="#m49ec6a4092" y="94.4839371305"/>
     <use style="stroke:#000000;" x="83.4564705882" xlink:href="#m49ec6a4092" y="114.59448"/>
     <use style="stroke:#000000;" x="126.222794118" xlink:href="#m49ec6a4092" y="71.1437921273"/>
     <use style="stroke:#000000;" x="117.100588235" xlink:href="#m49ec6a4092" y="79.4501240028"/>
     <use style="stroke:#000000;" x="136.794705882" xlink:href="#m49ec6a4092" y="84.8765647641"/>
     <use style="stroke:#000000;" x="98.0629411765" xlink:href="#m49ec6a4092" y="113.904675576"/>
     <use style="stroke:#000000;" x="51.9458823529" xlink:href="#m49ec6a4092" y="110.737509215"/>
     <use style="stroke:#000000;" x="72.6247058824" xlink:href="#m49ec6a4092" y="108.570316574"/>
     <use style="stroke:#000000;" x="53.7511764706" xlink:href="#m49ec6a4092" y="112.393710046"/>
     <use style="stroke:#000000;" x="55.7205882353" xlink:href="#m49ec6a4092" y="109.540284776"/>
     <use style="stroke:#000000;" x="65.8958823529" xlink:href="#m49ec6a4092" y="107.425117468"/>
     <use style="stroke:#000000;" x="83.1282352941" xlink:href="#m49ec6a4092" y="110.615597346"/>
     <use style="stroke:#000000;" x="82.6358823529" xlink:href="#m49ec6a4092" y="111.625260588"/>
     <use style="stroke:#000000;" x="55.3923529412" xlink:href="#m49ec6a4092" y="113.013268962"/>
     <use style="stroke:#000000;" x="85.59" xlink:href="#m49ec6a4092" y="109.04732524"/>
     <use style="stroke:#000000;" x="82.8" xlink:href="#m49ec6a4092" y="119.44675736"/>
     <use style="stroke:#000000;" x="35.0417647059" xlink:href="#m49ec6a4092" y="112.425138699"/>
     <use style="stroke:#000000;" x="154.355294118" xlink:href="#m49ec6a4092" y="99.4955636364"/>
    </g>
   </g>
   <g id="line2d_1">
    <path clip-path="url(#pffccc37a90)" d="M 28.641176 115.649465 
L 34.333545 115.753693 
L 35.023529 115.782164 
L 39.680922 115.882751 
L 41.06089 115.914863 
L 47.270747 116.017762 
L 48.650715 116.047568 
L 54.860572 116.15277 
L 56.240541 116.18026 
L 59.517965 116.276959 
L 61.415421 116.37931 
L 65.037838 116.476084 
L 66.590302 116.512014 
L 72.627663 116.607586 
L 74.007631 116.644706 
L 77.457552 116.741111 
L 78.320032 116.929457 
L 79.010016 117.034196 
L 80.217488 117.000719 
L 81.252464 116.983893 
L 85.737361 117.308201 
L 92.464706 117.405977 
L 95.914626 117.639955 
L 98.847059 117.53639 
L 99.709539 117.499027 
L 101.606995 117.245441 
L 103.159459 115.921976 
L 103.849444 114.580746 
L 105.229412 111.066235 
L 106.954372 105.002697 
L 107.47186 102.548833 
L 108.161844 99.365138 
L 108.851828 95.447058 
L 109.541812 91.528973 
L 109.886804 90.098606 
L 110.0593 89.77045 
L 110.404293 89.929031 
L 110.749285 90.232313 
L 111.266773 90.802004 
L 111.611765 90.998075 
L 112.819237 90.178887 
L 112.991733 89.850731 
L 113.509221 87.057554 
L 114.544197 77.354368 
L 115.406677 59.312839 
L 115.751669 52.155346 
L 116.269157 38.627643 
L 116.441653 34.23805 
L 117.994118 22.009942 
L 118.33911 23.156382 
L 118.511606 23.81967 
L 119.20159 27.700725 
L 121.271542 37.302349 
L 121.616534 38.598115 
L 123.341494 46.535829 
L 123.858983 48.689614 
L 124.893959 52.035314 
L 125.583943 53.05858 
L 128.343879 56.600476 
L 129.896343 59.7416 
L 131.448808 63.512132 
L 133.001272 68.029507 
L 133.346264 68.694219 
L 133.863752 69.294138 
L 135.071224 71.296139 
L 136.1062 73.310351 
L 136.623688 74.049927 
L 139.728617 77.705013 
L 141.108585 78.633849 
L 141.453577 79.203462 
L 143.523529 83.413073 
L 144.731002 85.448395 
L 146.283466 86.493592 
L 148.525914 89.095291 
L 149.733386 90.229036 
L 150.940859 91.40006 
L 152.148331 92.139524 
L 153.528299 93.024852 
L 154.045787 93.386144 
L 155.598251 94.309123 
L 156.460731 94.800222 
L 156.805723 95.005541 
L 157.495707 95.466515 
L 158.530684 96.134772 
L 159.393164 96.778448 
L 161.808108 98.423874 
L 163.705564 99.465277 
L 165.430525 100.319528 
L 166.810493 100.940247 
L 175.60779 104.779747 
L 175.952782 104.914686 
L 176.987758 105.119294 
L 179.230207 105.949118 
L 180.092687 106.309334 
L 181.300159 106.806126 
L 182.507631 107.430417 
L 183.025119 107.700835 
L 184.405087 108.171124 
L 185.61256 108.419142 
L 190.442448 109.461005 
L 192.857393 109.973428 
L 194.237361 110.009751 
L 200.964706 110.009751 
L 200.964706 110.009751 
" style="fill:none;stroke:#000000;stroke-linecap:square;"/>
   </g>
   <g id="patch_3">
    <path d="M 27 14.4 
L 194.4 14.4 
" style="fill:none;stroke:#000000;stroke-linecap:square;stroke-linejoin:miter;"/>
   </g>
   <g id="patch_4">
    <path d="M 194.4 126 
L 194.4 14.4 
" style="fill:none;stroke:#000000;stroke-linecap:square;stroke-linejoin:miter;"/>
   </g>
   <g id="patch_5">
    <path d="M 27 126 
L 194.4 126 
" style="fill:none;stroke:#000000;stroke-linecap:square;stroke-linejoin:miter;"/>
   </g>
   <g id="patch_6">
    <path d="M 27 126 
L 27 14.4 
" style="fill:none;stroke:#000000;stroke-linecap:square;stroke-linejoin:miter;"/>
   </g>
   <g id="matplotlib.axis_1">
    <g id="xtick_1">
     <g id="line2d_2">
      <defs>
       <path d="M 0 0 
L 0 -4 
" id="mab3252adfc" style="stroke:#000000;stroke-width:0.5;"/>
      </defs>
      <g>
       <use style="stroke:#000000;stroke-width:0.5;" x="45.0529411765" xlink:href="#mab3252adfc" y="126.0"/>
      </g>
     </g>
     <g id="line2d_3">
      <defs>
       <path d="M 0 0 
L 0 4 
" id="m9e5edb2684" style="stroke:#000000;stroke-width:0.5;"/>
      </defs>
      <g>
       <use style="stroke:#000000;stroke-width:0.5;" x="45.0529411765" xlink:href="#m9e5edb2684" y="14.4"/>
      </g>
     </g>
     <g id="text_1">
      <text style="font-family:Helvetica LT Std;font-size:8.0px;font-style:normal;font-weight:400;text-anchor:middle;" transform="rotate(-0.000000, 45.052941, 135.696250)" x="45.0529411765" y="135.69625">1920</text>
     </g>
    </g>
    <g id="xtick_2">
     <g id="line2d_4">
      <g>
       <use style="stroke:#000000;stroke-width:0.5;" x="77.8764705882" xlink:href="#mab3252adfc" y="126.0"/>
      </g>
     </g>
     <g id="line2d_5">
      <g>
       <use style="stroke:#000000;stroke-width:0.5;" x="77.8764705882" xlink:href="#m9e5edb2684" y="14.4"/>
      </g>
     </g>
     <g id="text_2">
      <text style="font-family:Helvetica LT Std;font-size:8.0px;font-style:normal;font-weight:400;text-anchor:middle;" transform="rotate(-0.000000, 77.876471, 135.696250)" x="77.8764705882" y="135.69625">1940</text>
     </g>
    </g>
    <g id="xtick_3">
     <g id="line2d_6">
      <g>
       <use style="stroke:#000000;stroke-width:0.5;" x="110.7" xlink:href="#mab3252adfc" y="126.0"/>
      </g>
     </g>
     <g id="line2d_7">
      <g>
       <use style="stroke:#000000;stroke-width:0.5;" x="110.7" xlink:href="#m9e5edb2684" y="14.4"/>
      </g>
     </g>
     <g id="text_3">
      <text style="font-family:Helvetica LT Std;font-size:8.0px;font-style:normal;font-weight:400;text-anchor:middle;" transform="rotate(-0.000000, 110.700000, 135.696250)" x="110.7" y="135.69625">1960</text>
     </g>
    </g>
    <g id="xtick_4">
     <g id="line2d_8">
      <g>
       <use style="stroke:#000000;stroke-width:0.5;" x="143.523529412" xlink:href="#mab3252adfc" y="126.0"/>
      </g>
     </g>
     <g id="line2d_9">
      <g>
       <use style="stroke:#000000;stroke-width:0.5;" x="143.523529412" xlink:href="#m9e5edb2684" y="14.4"/>
      </g>
     </g>
     <g id="text_4">
      <text style="font-family:Helvetica LT Std;font-size:8.0px;font-style:normal;font-weight:400;text-anchor:middle;" transform="rotate(-0.000000, 143.523529, 135.696250)" x="143.523529412" y="135.69625">1980</text>
     </g>
    </g>
    <g id="xtick_5">
     <g id="line2d_10">
      <g>
       <use style="stroke:#000000;stroke-width:0.5;" x="176.347058824" xlink:href="#mab3252adfc" y="126.0"/>
      </g>
     </g>
     <g id="line2d_11">
      <g>
       <use style="stroke:#000000;stroke-width:0.5;" x="176.347058824" xlink:href="#m9e5edb2684" y="14.4"/>
      </g>
     </g>
     <g id="text_5">
      <text style="font-family:Helvetica LT Std;font-size:8.0px;font-style:normal;font-weight:400;text-anchor:middle;" transform="rotate(-0.000000, 176.347059, 135.696250)" x="176.347058824" y="135.69625">2000</text>
     </g>
    </g>
    <g id="xtick_6">
     <g id="line2d_12">
      <defs>
       <path d="M 0 0 
L 0 -2 
" id="m9b0b0b7f53" style="stroke:#000000;stroke-width:0.5;"/>
      </defs>
      <g>
       <use style="stroke:#000000;stroke-width:0.5;" x="28.6411764706" xlink:href="#m9b0b0b7f53" y="126.0"/>
      </g>
     </g>
     <g id="line2d_13">
      <defs>
       <path d="M 0 0 
L 0 2 
" id="m4eeaf05439" style="stroke:#000000;stroke-width:0.5;"/>
      </defs>
      <g>
       <use style="stroke:#000000;stroke-width:0.5;" x="28.6411764706" xlink:href="#m4eeaf05439" y="14.4"/>
      </g>
     </g>
    </g>
    <g id="xtick_7">
     <g id="line2d_14">
      <g>
       <use style="stroke:#000000;stroke-width:0.5;" x="61.4647058824" xlink:href="#m9b0b0b7f53" y="126.0"/>
      </g>
     </g>
     <g id="line2d_15">
      <g>
       <use style="stroke:#000000;stroke-width:0.5;" x="61.4647058824" xlink:href="#m4eeaf05439" y="14.4"/>
      </g>
     </g>
    </g>
    <g id="xtick_8">
     <g id="line2d_16">
      <g>
       <use style="stroke:#000000;stroke-width:0.5;" x="94.2882352941" xlink:href="#m9b0b0b7f53" y="126.0"/>
      </g>
     </g>
     <g id="line2d_17">
      <g>
       <use style="stroke:#000000;stroke-width:0.5;" x="94.2882352941" xlink:href="#m4eeaf05439" y="14.4"/>
      </g>
     </g>
    </g>
    <g id="xtick_9">
     <g id="line2d_18">
      <g>
       <use style="stroke:#000000;stroke-width:0.5;" x="127.111764706" xlink:href="#m9b0b0b7f53" y="126.0"/>
      </g>
     </g>
     <g id="line2d_19">
      <g>
       <use style="stroke:#000000;stroke-width:0.5;" x="127.111764706" xlink:href="#m4eeaf05439" y="14.4"/>
      </g>
     </g>
    </g>
    <g id="xtick_10">
     <g id="line2d_20">
      <g>
       <use style="stroke:#000000;stroke-width:0.5;" x="159.935294118" xlink:href="#m9b0b0b7f53" y="126.0"/>
      </g>
     </g>
     <g id="line2d_21">
      <g>
       <use style="stroke:#000000;stroke-width:0.5;" x="159.935294118" xlink:href="#m4eeaf05439" y="14.4"/>
      </g>
     </g>
    </g>
    <g id="xtick_11">
     <g id="line2d_22">
      <g>
       <use style="stroke:#000000;stroke-width:0.5;" x="192.758823529" xlink:href="#m9b0b0b7f53" y="126.0"/>
      </g>
     </g>
     <g id="line2d_23">
      <g>
       <use style="stroke:#000000;stroke-width:0.5;" x="192.758823529" xlink:href="#m4eeaf05439" y="14.4"/>
      </g>
     </g>
    </g>
    <g id="text_6">
     <text style="font-family:Helvetica LT Std;font-size:8.0px;font-style:normal;font-weight:400;text-anchor:middle;" transform="rotate(-0.000000, 110.700000, 147.527500)" x="110.7" y="147.5275">Calendar year</text>
    </g>
   </g>
   <g id="matplotlib.axis_2">
    <g id="ytick_1">
     <g id="line2d_24">
      <defs>
       <path d="M 0 0 
L 4 0 
" id="m131507e087" style="stroke:#000000;stroke-width:0.5;"/>
      </defs>
      <g>
       <use style="stroke:#000000;stroke-width:0.5;" x="27.0" xlink:href="#m131507e087" y="114.84"/>
      </g>
     </g>
     <g id="line2d_25">
      <defs>
       <path d="M 0 0 
L -4 0 
" id="m056e034c0c" style="stroke:#000000;stroke-width:0.5;"/>
      </defs>
      <g>
       <use style="stroke:#000000;stroke-width:0.5;" x="194.4" xlink:href="#m056e034c0c" y="114.84"/>
      </g>
     </g>
     <g id="text_7">
      <text style="font-family:Helvetica LT Std;font-size:8.0px;font-style:normal;font-weight:400;text-anchor:end;" transform="rotate(-0.000000, 23.000000, 117.176250)" x="23.0" y="117.17625">0.0</text>
     </g>
    </g>
    <g id="ytick_2">
     <g id="line2d_26">
      <g>
       <use style="stroke:#000000;stroke-width:0.5;" x="27.0" xlink:href="#m131507e087" y="92.52"/>
      </g>
     </g>
     <g id="line2d_27">
      <g>
       <use style="stroke:#000000;stroke-width:0.5;" x="194.4" xlink:href="#m056e034c0c" y="92.52"/>
      </g>
     </g>
     <g id="text_8">
      <text style="font-family:Helvetica LT Std;font-size:8.0px;font-style:normal;font-weight:400;text-anchor:end;" transform="rotate(-0.000000, 23.000000, 94.856250)" x="23.0" y="94.85625">0.2</text>
     </g>
    </g>
    <g id="ytick_3">
     <g id="line2d_28">
      <g>
       <use style="stroke:#000000;stroke-width:0.5;" x="27.0" xlink:href="#m131507e087" y="70.2"/>
      </g>
     </g>
     <g id="line2d_29">
      <g>
       <use style="stroke:#000000;stroke-width:0.5;" x="194.4" xlink:href="#m056e034c0c" y="70.2"/>
      </g>
     </g>
     <g id="text_9">
      <text style="font-family:Helvetica LT Std;font-size:8.0px;font-style:normal;font-weight:400;text-anchor:end;" transform="rotate(-0.000000, 23.000000, 72.536250)" x="23.0" y="72.53625">0.4</text>
     </g>
    </g>
    <g id="ytick_4">
     <g id="line2d_30">
      <g>
       <use style="stroke:#000000;stroke-width:0.5;" x="27.0" xlink:href="#m131507e087" y="47.88"/>
      </g>
     </g>
     <g id="line2d_31">
      <g>
       <use style="stroke:#000000;stroke-width:0.5;" x="194.4" xlink:href="#m056e034c0c" y="47.88"/>
      </g>
     </g>
     <g id="text_10">
      <text style="font-family:Helvetica LT Std;font-size:8.0px;font-style:normal;font-weight:400;text-anchor:end;" transform="rotate(-0.000000, 23.000000, 50.216250)" x="23.0" y="50.21625">0.6</text>
     </g>
    </g>
    <g id="ytick_5">
     <g id="line2d_32">
      <g>
       <use style="stroke:#000000;stroke-width:0.5;" x="27.0" xlink:href="#m131507e087" y="25.56"/>
      </g>
     </g>
     <g id="line2d_33">
      <g>
       <use style="stroke:#000000;stroke-width:0.5;" x="194.4" xlink:href="#m056e034c0c" y="25.56"/>
      </g>
     </g>
     <g id="text_11">
      <text style="font-family:Helvetica LT Std;font-size:8.0px;font-style:normal;font-weight:400;text-anchor:end;" transform="rotate(-0.000000, 23.000000, 27.896250)" x="23.0" y="27.89625">0.8</text>
     </g>
    </g>
    <g id="text_12">
     <!-- $\Delta^{14}$C -->
     <g transform="translate(10.32125 78.12)rotate(-90.0)">
      <text>
       <tspan style="font-family:cmr10;font-size:8.0px;font-style:regular;font-weight:regular;" x="0.0" y="-0.2091875">¢</tspan>
       <tspan style="font-family:Helvetica LT Std;font-size:8.0px;font-style:ultra compressed;font-weight:ultra compressed;" x="13.13138125" y="-0.2091875">C</tspan>
       <tspan style="font-family:cmr10;font-size:5.6px;font-style:regular;font-weight:regular;" x="7.02119375 9.82119375" y="-3.2703125">14</tspan>
      </text>
     </g>
    </g>
   </g>
   <g id="legend_1">
    <g id="patch_7">
     <path d="M 31 52.96 
L 112.42875 52.96 
L 112.42875 18.4 
L 31 18.4 
z
" style="fill:#ffffff;stroke:#000000;stroke-linejoin:miter;"/>
    </g>
    <g id="line2d_34">
     <path d="M 36.6 24.49625 
L 47.8 24.49625 
" style="fill:none;stroke:#000000;stroke-linecap:square;"/>
    </g>
    <g id="line2d_35"/>
    <g id="text_13">
     <text style="font-family:Helvetica LT Std;font-size:8.0px;font-style:normal;font-weight:400;text-anchor:start;" transform="rotate(-0.000000, 56.600000, 27.296250)" x="56.6" y="27.29625">Atmosphere                    </text>
    </g>
    <g id="PathCollection_3">
     <path d="M 42.2 38.152318 
C 42.793012 38.152318 43.361816 37.916712 43.781139 37.497389 
C 44.200462 37.078066 44.436068 36.509262 44.436068 35.91625 
C 44.436068 35.323238 44.200462 34.754434 43.781139 34.335111 
C 43.361816 33.915788 42.793012 33.680182 42.2 33.680182 
C 41.606988 33.680182 41.038184 33.915788 40.618861 34.335111 
C 40.199538 34.754434 39.963932 35.323238 39.963932 35.91625 
C 39.963932 36.509262 40.199538 37.078066 40.618861 37.497389 
C 41.038184 37.916712 41.606988 38.152318 42.2 38.152318 
z
" style="fill:#56b4e9;stroke:#56b4e9;"/>
     <path d="M 42.2 38.152318 
C 42.793012 38.152318 43.361816 37.916712 43.781139 37.497389 
C 44.200462 37.078066 44.436068 36.509262 44.436068 35.91625 
C 44.436068 35.323238 44.200462 34.754434 43.781139 34.335111 
C 43.361816 33.915788 42.793012 33.680182 42.2 33.680182 
C 41.606988 33.680182 41.038184 33.915788 40.618861 34.335111 
C 40.199538 34.754434 39.963932 35.323238 39.963932 35.91625 
C 39.963932 36.509262 40.199538 37.078066 40.618861 37.497389 
C 41.038184 37.916712 41.606988 38.152318 42.2 38.152318 
z
" style="fill:#56b4e9;stroke:#56b4e9;"/>
     <path d="M 42.2 38.152318 
C 42.793012 38.152318 43.361816 37.916712 43.781139 37.497389 
C 44.200462 37.078066 44.436068 36.509262 44.436068 35.91625 
C 44.436068 35.323238 44.200462 34.754434 43.781139 34.335111 
C 43.361816 33.915788 42.793012 33.680182 42.2 33.680182 
C 41.606988 33.680182 41.038184 33.915788 40.618861 34.335111 
C 40.199538 34.754434 39.963932 35.323238 39.963932 35.91625 
C 39.963932 36.509262 40.199538 37.078066 40.618861 37.497389 
C 41.038184 37.916712 41.606988 38.152318 42.2 38.152318 
z
" style="fill:#56b4e9;stroke:#56b4e9;"/>
    </g>
    <g id="text_14">
     <text style="font-family:Helvetica LT Std;font-size:8.0px;font-style:normal;font-weight:400;text-anchor:start;" transform="rotate(-0.000000, 56.600000, 38.016250)" x="56.6" y="38.01625">Artificial data            </text>
    </g>
    <g id="PathCollection_4">
     <path d="M 42.2 48.872318 
C 42.793012 48.872318 43.361816 48.636712 43.781139 48.217389 
C 44.200462 47.798066 44.436068 47.229262 44.436068 46.63625 
C 44.436068 46.043238 44.200462 45.474434 43.781139 45.055111 
C 43.361816 44.635788 42.793012 44.400182 42.2 44.400182 
C 41.606988 44.400182 41.038184 44.635788 40.618861 45.055111 
C 40.199538 45.474434 39.963932 46.043238 39.963932 46.63625 
C 39.963932 47.229262 40.199538 47.798066 40.618861 48.217389 
C 41.038184 48.636712 41.606988 48.872318 42.2 48.872318 
z
" style="stroke:#000000;"/>
     <path d="M 42.2 48.872318 
C 42.793012 48.872318 43.361816 48.636712 43.781139 48.217389 
C 44.200462 47.798066 44.436068 47.229262 44.436068 46.63625 
C 44.436068 46.043238 44.200462 45.474434 43.781139 45.055111 
C 43.361816 44.635788 42.793012 44.400182 42.2 44.400182 
C 41.606988 44.400182 41.038184 44.635788 40.618861 45.055111 
C 40.199538 45.474434 39.963932 46.043238 39.963932 46.63625 
C 39.963932 47.229262 40.199538 47.798066 40.618861 48.217389 
C 41.038184 48.636712 41.606988 48.872318 42.2 48.872318 
z
" style="stroke:#000000;"/>
     <path d="M 42.2 48.872318 
C 42.793012 48.872318 43.361816 48.636712 43.781139 48.217389 
C 44.200462 47.798066 44.436068 47.229262 44.436068 46.63625 
C 44.436068 46.043238 44.200462 45.474434 43.781139 45.055111 
C 43.361816 44.635788 42.793012 44.400182 42.2 44.400182 
C 41.606988 44.400182 41.038184 44.635788 40.618861 45.055111 
C 40.199538 45.474434 39.963932 46.043238 39.963932 46.63625 
C 39.963932 47.229262 40.199538 47.798066 40.618861 48.217389 
C 41.038184 48.636712 41.606988 48.872318 42.2 48.872318 
z
" style="stroke:#000000;"/>
    </g>
    <g id="text_15">
     <text style="font-family:Helvetica LT Std;font-size:8.0px;font-style:normal;font-weight:400;text-anchor:start;" transform="rotate(-0.000000, 56.600000, 48.736250)" x="56.6" y="48.73625">Neuronal DNA                   </text>
    </g>
   </g>
  </g>
 </g>
 <defs>
  <clipPath id="pffccc37a90">
   <rect height="111.6" width="167.4" x="27.0" y="14.4"/>
  </clipPath>
 </defs>
</svg>
